<?xml version="1.0" standalone="no"?><!DOCTYPE svg PUBLIC "-//W3C//DTD SVG 1.1//EN" "http://www.w3.org/Graphics/SVG/1.1/DTD/svg11.dtd"><svg t="1531971573673" class="icon" style="" viewBox="0 0 1024 1024" version="1.1" xmlns="http://www.w3.org/2000/svg" p-id="4309" xmlns:xlink="http://www.w3.org/1999/xlink" width="200" height="200"><defs><style type="text/css"></style></defs><path d="M588.950934 904.378135c-131.901269 0-381.275507-14.939942-381.275507-71.322874 0-95.881683 68.253023-187.465574 178.153693-239.039072l11.358449-5.321076 9.311881 8.493255c50.345558 45.740781 115.221745 70.913561 182.553813 70.913561 67.741381 0 132.822224-25.377436 183.270111-71.629859l9.41421-8.595584 11.460777 5.423404c109.082043 51.880484 176.823424 143.77136 176.823424 239.755371 0.204657 56.48526-249.169581 71.322874-381.070851 71.322874m-342.595383-79.202158c24.661137 12.893375 132.003597 39.805736 342.595383 39.805736s317.934246-26.912361 342.595384-39.805736c-3.581493-74.495053-57.610872-146.124913-143.362047-190.535425-56.075947 47.173379-126.17088 72.960128-199.02868 72.960128-72.448486 0-142.338763-25.582093-198.312381-72.346158-86.467473 44.103528-140.906166 115.52873-144.487659 189.921455" p-id="4310"></path><path d="M587.927651 164.953333c117.882282 0 213.763965 98.644549 213.763965 220.005995 0 121.259119-95.881683 220.005996-213.763965 220.005996s-213.763965-98.644549-213.763966-220.005996c0-121.259119 95.881683-220.005996 213.763966-220.005995m0-37.349855C449.886679 127.603478 337.734786 243.132207 337.734786 384.959328 337.734786 526.888778 449.886679 642.315179 587.927651 642.315179S838.120516 526.888778 838.120516 384.959328C838.120516 243.132207 725.866294 127.603478 587.927651 127.603478" p-id="4311"></path><path d="M583.425202 225.634056c-79.202158 0-143.566703 66.308784-143.566703 147.762167 0 10.232837-8.083941 18.521435-18.009793 18.521435-9.925852 0-18.009793-8.288598-18.009793-18.521435 0-101.919057 80.532427-184.805036 179.586289-184.805037 9.925852 0 18.009793 8.288598 18.009794 18.521435-0.102328 10.232837-8.083941 18.521435-18.009794 18.521435" p-id="4312"></path><path d="M440.677126 457.7148c-3.274508 3.479165-7.879285 5.423404-12.58639 5.423403-4.911762 0-9.311882-1.841911-12.791046-5.423403-3.376836-3.479165-5.218747-8.288598-5.218747-13.20036s1.841911-9.618867 5.218747-13.20036c6.651344-6.856001 18.726092-6.856001 25.377436 0 3.376836 3.479165 5.423404 8.288598 5.423404 13.20036 0 5.01409-1.944239 9.721195-5.423404 13.20036" p-id="4313"></path><path d="M164.18587 814.124513c-1.22794 0-2.455881-0.102328-3.78615-0.409314-0.716299-0.204657-18.112122-4.297792-35.814929-12.381732-28.344959-12.893375-42.773259-29.163585-42.773259-48.40132v-0.409313c0-35.405616 8.083941-70.708904 24.251824-104.784251 28.24263-59.964425 78.178875-110.412311 148.580793-150.320376-16.372539-27.01469-43.591886-83.704607-34.996302-151.548316 11.767763-91.993205 64.466873-161.064855 148.376136-194.526232 8.595583-3.479165 18.316778 0.920955 21.693615 9.721196 3.376836 8.80024-0.920955 18.726092-9.516539 22.205256-37.65684 15.04227-67.843709 37.861497-89.639652 67.843709-20.158689 27.833317-32.847407 61.192365-37.65684 99.156191-10.02818 78.997502 38.782452 141.827121 39.294094 142.441091l12.995703 16.474868-18.521435 9.618867c-154.720496 80.225442-171.40002 190.126112-171.40002 233.615669v0.409313c0 1.432597 3.78615 8.288598 22.409913 16.884181 14.735285 6.753672 29.982212 10.437494 30.186869 10.437494 9.004897 2.148896 14.632957 11.358449 12.484061 20.568002-1.739582 8.083941-8.595583 13.405016-16.167882 13.405017z" p-id="4314"></path><path d="M428.090736 444.719097m-18.419106 0a18.419107 18.419107 0 1 0 36.838213 0 18.419107 18.419107 0 1 0-36.838213 0Z" p-id="4315"></path></svg>