<?xml version="1.0" standalone="no"?><!DOCTYPE svg PUBLIC "-//W3C//DTD SVG 1.1//EN" "http://www.w3.org/Graphics/SVG/1.1/DTD/svg11.dtd"><svg t="1531970833611" class="icon" style="" viewBox="0 0 1024 1024" version="1.1" xmlns="http://www.w3.org/2000/svg" p-id="2034" xmlns:xlink="http://www.w3.org/1999/xlink" width="200" height="200"><defs><style type="text/css"></style></defs><path d="M918.974503 913.246547H105.022427c-39.904849 0-72.349795-33.467229-72.349795-74.624605V185.405687c0-41.157375 32.444946-74.652234 72.349795-74.652234h345.889775c16.736173 0 32.0653 9.200546 39.816844 23.917736l114.215298 213.856669h296.507064c39.903825 0 89.873913 48.007387 89.873913 89.167832v400.924206c0 41.158399-32.44597 74.626651-72.350818 74.626651z m-776.365016-70.821999H881.387443c22.281469 0 40.34794-17.922185 40.34794-40.028668V468.25059c0-26.193569-21.402449-47.427172-47.805795-47.427172H589.970304c-18.041912 0-34.568307-9.91993-42.928718-25.786293L435.273013 196.827831c-6.991228-13.097296-20.710694-21.287839-35.647895-21.287839H142.609487c-22.280446 0-40.346917 17.922185-40.346917 40.029692v586.825172c0.00307 22.107507 18.065448 40.029692 40.346917 40.029692z" fill="" p-id="2035"></path><path d="M879.677499 386.607128c-25.179472 0.466628-45.790906-20.472264-45.790906-45.457308v-69.517283c0-17.587564-14.372336-33.857109-32.099069-33.857109H517.268492c-25.184589 0-46.287209-20.447704-45.816488-45.430702 0.454348-24.221658 20.402679-28.64541 44.928258-28.64541H838.725808c41.307801 0 74.893734 48.182372 74.893734 89.166809v89.165785c0 24.331151-9.528004 44.12394-33.942043 44.575218z" fill="" p-id="2036"></path></svg>