<?xml version="1.0" standalone="no"?><!DOCTYPE svg PUBLIC "-//W3C//DTD SVG 1.1//EN" "http://www.w3.org/Graphics/SVG/1.1/DTD/svg11.dtd"><svg t="1531979474536" class="icon" style="" viewBox="0 0 1099 1024" version="1.1" xmlns="http://www.w3.org/2000/svg" p-id="1385" xmlns:xlink="http://www.w3.org/1999/xlink" width="214.6484375" height="200"><defs><style type="text/css"></style></defs><path d="M78.526343 73.831253v651.768645a588.162307 588.162307 0 0 1 196.315857 46.330542 502.568594 502.568594 0 0 1 152.341105 78.526343V230.883938A362.791704 362.791704 0 0 0 274.8422 120.161795 706.737085 706.737085 0 0 0 78.526343 73.831253zM0 0.016491a917.972947 917.972947 0 0 1 314.105371 53.397913 441.318046 441.318046 0 0 1 198.671647 157.052685V1020.858946a706.737085 706.737085 0 0 0-254.42535-170.402163A761.705525 761.705525 0 0 0 0 789.991499zM1020.842456 73.831253v651.768645a588.162307 588.162307 0 0 0-196.315857 46.330542 502.568594 502.568594 0 0 0-152.341105 78.526343V230.883938a362.791704 362.791704 0 0 1 152.341105-109.93688 706.737085 706.737085 0 0 1 196.315857-47.115805zM1099.368799 0.016491a917.972947 917.972947 0 0 0-314.105371 53.397913 441.318046 441.318046 0 0 0-198.671648 157.052685V1020.858946a706.737085 706.737085 0 0 1 254.425351-170.402163A761.705525 761.705525 0 0 1 1099.368799 793.132552z" fill="#e6e6e6" p-id="1386"></path></svg>