<?xml version="1.0" standalone="no"?><!DOCTYPE svg PUBLIC "-//W3C//DTD SVG 1.1//EN" "http://www.w3.org/Graphics/SVG/1.1/DTD/svg11.dtd"><svg t="1531971553379" class="icon" style="" viewBox="0 0 1024 1024" version="1.1" xmlns="http://www.w3.org/2000/svg" p-id="3605" xmlns:xlink="http://www.w3.org/1999/xlink" width="200" height="200"><defs><style type="text/css"></style></defs><path d="M697.394287109375 512v333.709716796875h-37.078857421875V363.6845703125h74.15771484375L512 215.369140625 289.52685546875 363.6845703125h74.15771484375v482.025146484375H326.605712890625V512H178.290283203125v370.78857421875h667.41943359375V512H697.394287109375zM215.369140625 586.15771484375h74.15771484375v37.078857421875H215.369140625v-37.078857421875z m0 74.15771484375h74.15771484375V697.394287109375H215.369140625v-37.078857421875z m0 74.15771484375h74.15771484375v37.078857421875H215.369140625v-37.078857421875zM512 400.763427734375c40.95982611179352 0 74.15771484375 33.19788873195648 74.15771484375 74.15771484375S552.9598261117935 549.078857421875 512 549.078857421875s-74.15771484375-33.19788873195648-74.15771484375-74.15771484375S471.0401738882065 400.763427734375 512 400.763427734375zM437.84228515625 845.709716796875v-185.394287109375h148.3154296875v185.394287109375H437.84228515625z m296.630859375-259.552001953125h74.15771484375v37.078857421875H734.47314453125v-37.078857421875z m0 74.15771484375h74.15771484375V697.394287109375H734.47314453125v-37.078857421875z m0 74.15771484375h74.15771484375v37.078857421875H734.47314453125v-37.078857421875z" p-id="3606"></path></svg>