<?xml version="1.0" standalone="no"?><!DOCTYPE svg PUBLIC "-//W3C//DTD SVG 1.1//EN" "http://www.w3.org/Graphics/SVG/1.1/DTD/svg11.dtd"><svg t="1531971712331" class="icon" style="" viewBox="0 0 1024 1024" version="1.1" xmlns="http://www.w3.org/2000/svg" p-id="5005" xmlns:xlink="http://www.w3.org/1999/xlink" width="200" height="200"><defs><style type="text/css"></style></defs><path d="M927.204955 237.922784l27.172873-9.900487-27.172873 9.900487zM508.687046 636.364449c86.082564 0 119.635751-29.049616 119.635751-29.049616 72.221882-38.425148 110.191658-110.463858 110.191658-193.130626 0-3.435239-0.39295-6.66684-0.592494-10.029424 16.375969-12.488429 26.14445-25.954115 26.14445-39.561018v-92.837408l102.211916-37.178761 25.555026-9.236361 25.562189-9.31311L508.474198 67.461461 99.563088 216.028125l153.319921 55.667857v92.89062c0 13.274328 9.768481 26.548656 26.210965 39.025829-0.198521 3.5038-0.660032 6.940063-0.660032 10.508331 0 81.960687 37.328164 153.476487 108.35994 192.20658 0.607844 0.332575 1.217734 0.661056 1.831718 0.988514 0 0 32.123628 29.048593 120.061446 29.048593z m-0.212848-44.398186c-94.256734 0-171.762969-69.5224-180.740433-158.611438 49.073672 19.574824 118.528534 43.269479 184.091761 43.26948 65.638953 0 128.316457-23.362081 177.39013-42.813085-9.247618 88.840374-86.682221 158.155043-180.741458 158.155043z m199.674669-240.208851c0 6.224772-21.487384 14.20349-33.775244 22.477944 0 0-3.777023 2.759857-9.118682 5.625115-34.46086 19.785625-95.293343 39.322587-156.848281 39.322587-61.436234 0-122.273834-20.195971-156.735717-39.921222-4.496407-2.457981-8.272407-5.034666-8.272407-5.034666-12.881378-8.454556-31.395034-16.542768-31.395034-22.476921v-53.28253l196.454324 67.432808 199.677738-67.432808v53.289693h0.013303z" fill="" p-id="5006"></path><path d="M902.252657 952.679651c36.171828 0 51.421136-33.021068 51.421136-68.858274 0-114.618481-271.427876-262.938528-271.427876-262.938528L561.889759 839.937914l-17.84646-52.183499 32.943296-65.868174-65.926502-65.86408-65.940828 65.86408 32.981159 65.868174-21.264303 53.419653-117.001761-220.294288S70.177827 765.132184 70.177827 883.313817c0 36.06131 14.862499 69.365834 51.260478 69.365834H902.252657zM875.071597 752.760412z" fill="" p-id="5007"></path></svg>