<?xml version="1.0" standalone="no"?><!DOCTYPE svg PUBLIC "-//W3C//DTD SVG 1.1//EN" "http://www.w3.org/Graphics/SVG/1.1/DTD/svg11.dtd"><svg t="1533094871114" class="icon" style="" viewBox="0 0 1024 1024" version="1.1" xmlns="http://www.w3.org/2000/svg" p-id="1500" xmlns:xlink="http://www.w3.org/1999/xlink" width="200" height="200"><defs><style type="text/css"></style></defs><path d="M511.9744 975.2832c-242.304 0-439.424-197.12-439.424-439.424 0-242.2784 197.12-439.424 439.424-439.424 242.3296 0 439.4752 197.12 439.4752 439.424C951.4496 778.1632 754.304 975.2832 511.9744 975.2832zM511.9744 134.8608c-221.1328 0-401.024 179.8912-401.024 401.024s179.8912 401.024 401.024 401.024c221.1584 0 401.0752-179.8912 401.0752-401.024S733.1328 134.8608 511.9744 134.8608z" p-id="1501"></path><path d="M509.3376 569.8048c-10.5984 0-19.2-8.6016-19.2-19.2L490.1376 265.088c0-10.5984 8.6016-19.2 19.2-19.2s19.2 8.6016 19.2 19.2l0 285.4912C528.5376 561.2032 519.9616 569.8048 509.3376 569.8048z" p-id="1502"></path><path d="M794.8544 569.8048 509.3376 569.8048c-10.5984 0-19.2-8.6016-19.2-19.2s8.6016-19.2 19.2-19.2l285.4912 0c10.5984 0 19.2 8.6016 19.2 19.2S805.4528 569.8048 794.8544 569.8048z" p-id="1503"></path><path d="M113.1008 191.4112c-5.3248 0-10.6496-2.2016-14.4384-6.5536-6.9632-7.9872-6.1696-20.1216 1.792-27.1104l119.1168-104.32c7.9616-6.9632 20.0704-6.2208 27.1104 1.792 6.9632 7.9872 6.1696 20.1216-1.792 27.1104L125.7472 186.6496C122.112 189.8496 117.6064 191.4112 113.1008 191.4112z" p-id="1504"></path><path d="M908.3648 184.8064c-4.1216 0-8.2944-1.3312-11.8272-4.096l-124.6208-97.7152c-8.3456-6.5536-9.8048-18.6112-3.2512-26.9568 6.5024-8.32 18.56-9.8304 26.9568-3.2512l124.6208 97.7152c8.3456 6.5536 9.8048 18.6112 3.2512 26.9568C919.7312 182.272 914.0736 184.8064 908.3648 184.8064z" p-id="1505"></path></svg>