<?xml version="1.0" standalone="no"?><!DOCTYPE svg PUBLIC "-//W3C//DTD SVG 1.1//EN" "http://www.w3.org/Graphics/SVG/1.1/DTD/svg11.dtd"><svg t="1531971516524" class="icon" style="" viewBox="0 0 1024 1024" version="1.1" xmlns="http://www.w3.org/2000/svg" p-id="2761" xmlns:xlink="http://www.w3.org/1999/xlink" width="200" height="200"><defs><style type="text/css"></style></defs><path d="M422.329213 431.856705c-5.487991 0-10.821463-0.402159-15.855106-1.201361-4.994758-0.794086-9.391904-1.99954-13.433964-3.679809-6.810103-2.834558-11.946077-7.713682-15.702634-14.903432-2.768043-5.287423-4.882194-11.359722-6.67298-19.114336-0.928139-4.037966-1.865487-8.345062-2.617617-11.806907l-0.173962-0.786923c-0.606821-2.780323-1.200338-5.51562-1.818415-8.242731l-0.10847-0.490164-0.137123-0.496303a61.867046 61.867046 0 0 0-0.495281-1.594311l-0.054235-0.165776a48.456618 48.456618 0 0 1-0.502443-1.642406c-0.226151-0.801249-0.440022-1.609661-0.6498-2.41398a85.405135 85.405135 0 0 0-0.816598-3.001357l-2.127454-7.169283-6.246261-4.103458c-0.455371-0.300852-0.694825-0.676405-0.781806-1.224897l-0.086981-0.511654c-0.124843-0.709151-0.229221-1.309832-0.214894-1.907442 0.104377-4.210905 0.242524-8.41874 0.384763-12.627599l0.105401-3.319605c0.033769-1.01819 0.665149-1.77032 1.696641-2.040473l1.020237-0.273222c1.463328-0.397043 3.084245-0.836041 4.637623-1.049913 8.566096-1.158383 17.729803-2.39249 26.998911-3.501753 9.939373-1.192152 20.515243-1.733481 34.297131-1.752924h0.192381c0.633427-0.013303 1.418302-0.016373 2.205225-0.016373 14.782681 0 29.881564 1.404999 44.86686 4.174066 8.506744 1.561565 16.809851 4.250814 24.140817 6.620791 5.375427 1.740644 9.509585 2.840698 13.401218 3.569292 2.098801 0.393973 4.267187 0.608867 6.456039 0.641613L496.555751 383.466602c-1.858324 4.800329-3.762697 9.013281-5.819542 12.880355-4.590552 8.613168-10.612709 16.132422-17.894556 22.341844-4.315282 3.669576-9.581216 6.365988-16.566304 8.485255-7.435343 2.249227-15.575744 3.667529-24.889876 4.337795-3.092431 0.227174-6.135744 0.344854-9.05626 0.344854z m-18.34481-8.674566c1.927909 0.480954 3.728928 0.8913 5.552459 1.165545a98.30391 98.30391 0 0 0 14.561647 1.087775c8.567119 0 17.295921-1.147126 25.939789-3.41068 7.274684-1.908466 13.024641-4.948709 17.58347-9.29776 3.38612-3.224438 6.372128-7.134491 9.391905-12.295024 4.910846-8.391111 8.479115-17.204847 10.589172-26.188452 1.566682-6.701632 2.096754-12.666484 1.609661-18.23941l-0.970094-11.17655-9.965979-5.196349c-3.349281-1.777483-6.921643-2.666736-11.600199-3.728928l-1.023307-0.234337c-9.470699-2.183735-19.485797-3.206018-33.462112-3.414773l-0.690732-0.010233-3.433192 0.180102c-3.306302 0.170892-7.421017 0.388856-11.471263 0.720408-8.124028 0.661056-15.426341 1.857301-22.313191 3.658319l-11.994172 3.225462-2.847862 12.044313c-0.379647 1.629103-0.573051 3.219321-0.809435 5.28947l-0.010233 0.106424a90.286306 90.286306 0 0 1-0.185218 1.553379c-0.579191 4.690836-0.645706 9.343809-0.200568 13.843286 0.645706 6.5246 1.645476 15.129582 3.691065 23.715121 1.575892 6.626931 3.868097 12.123109 7.003508 16.795525 1.6465 2.451842 3.497661 4.39817 5.664 5.953595l5.350868 3.850702h4.038989v0.00307h0.001024z m204.348108 8.126074c-8.661264 0-16.600073-0.725524-24.252357-2.210341-7.451716-1.451048-13.910824-3.702322-19.73139-6.879688-8.312316-4.53734-15.182794-11.363815-20.402679-20.295232a158.397566 158.397566 0 0 1-9.435907-18.942421l-18.8493-45.156456c4.52813-0.095167 9.235338-0.934279 14.364149-2.558265 2.466168-0.778736 4.885264-1.63115 7.228635-2.455935 2.197038-0.771573 4.455475-1.565658 6.643304-2.275833 8.125051-2.626827 17.10047-4.505617 28.227901-5.91164 10.400884-1.313925 21.042245-1.953492 32.512485-1.953492 4.689812 0 9.605775 0.11154 14.595416 0.334622l0.740874 0.036839c7.769964 0.347924 15.804964 0.706081 23.760146 1.258666 9.870812 0.687662 19.623943 2.146896 30.460756 3.849678 0.600681 0.089028 1.170662 0.243547 1.735527 0.38681l0.356111 0.095167c0.896416 0.231267 1.49198 0.64366 1.570775 1.938142 0.038886 0.663102 0.091074 1.364067 0.148379 2.059916l0.034793 0.456394c0.11768 1.488911 0.222057 2.868327 0.266059 4.324492 0.077771 2.62171 0.091074 5.215792 0.091075 7.997138l-3.037173-5.511527-4.327562 14.910595-0.042979 0.032745-2.027169 7.097652-7.412831 25.615401 1.297553-0.728594c-1.64036 6.678096-3.594875 13.525038-6.273891 20.054755-1.822508 4.452405-3.880377 8.095375-6.28924 11.142781-3.862981 4.906753-8.778944 8.051373-15.951297 10.207479-5.547343 1.654686-11.706623 2.610454-18.811437 2.917446-2.438539 0.106424-4.857635 0.162706-7.188726 0.162706z m-9.589403-99.360985c-3.027963 0.110517-6.794753 0.252757-10.462282 0.48914-6.033413 0.38988-12.349259 1.252527-19.304672 2.631944-4.110621 0.813528-8.961092 1.870604-13.820773 3.543709l-12.690021 4.375657-1.035585 13.386892a45.366234 45.366234 0 0 0-0.120751 2.357698c-0.130983 5.281283 0.76134 10.344602 2.148943 16.31764 2.814092 12.173251 7.699356 22.499433 14.943341 31.553647 5.954619 7.43432 13.471826 12.163017 22.355147 14.047947 9.735735 2.068102 18.61394 3.075035 27.163663 3.075035l0.948605-0.004093c5.575995-0.048095 12.123109-0.334621 18.662035-2.105964 5.906523-1.604544 9.952676-3.702322 13.140275-6.800893 2.935865-2.846838 5.254677-6.568602 7.074116-11.360745 3.723811-9.798157 5.788843-20.551058 6.141884-31.957853l0.017396-0.656963c0.105401-3.784186-0.052189-7.54279-0.194428-11.180643l-0.073678-1.760087a43.310412 43.310412 0 0 0-0.239454-3.466961l-0.321318-2.840698-1.095961-2.641153a37.630039 37.630039 0 0 0-0.387833-0.917906l-3.910053-8.812713-9.295714-2.589988c-10.82658-3.015683-21.624507-4.056386-35.539424-4.76349l-0.901533-0.042979-3.201925 0.12382z m93.369528 272.602631L564.887023 836.098469l-18.862604-55.163367 34.82618-69.62473-69.690222-69.615521-69.703525 69.615521 34.861996 69.62473-22.473851 56.469106-123.67474-232.853325S66.652538 743.950769 66.652538 881.94054c0 38.120203 15.709797 73.330122 54.182016 73.330122h782.305309c38.236859 0 54.353932-34.909068 54.353932-72.795956 0.001023-129.585357-265.38116-277.924847-265.381159-277.924847z m48.312332-285.200554l-0.169869-10.880815-9.135054-6.121417c-1.118474-0.773619-2.214435-1.442862-3.306303-2.111081-18.693758-160.566976-17.430998-255.299547-204.942649-227.276307-65.748447 9.804297-137.508817-10.44898-178.360223 19.191085-51.375088 48.00534-55.003731 120.055307-41.057092 204.611097a94.489024 94.489024 0 0 0-9.267061 5.602602l-9.144264 6.121418-0.164752 10.877744c-0.473791 28.163433 3.080152 51.934836 10.733459 70.134337 6.959505 16.564257 17.214057 28.881794 30.943756 36.293601 16.331967 55.17667 39.801495 96.601128 69.165266 126.390595 32.012088 32.495088 70.50375 50.953486 114.071012 58.244543l3.889586 0.618077 3.917217-0.792039c48.234561-10.110265 86.763063-29.372981 117.444852-61.563125 28.485775-29.811979 49.718355-70.063729 65.322751-123.824143 13.214976-7.628748 23.125697-20.054755 29.785374-36.472679 7.358595-18.093077 10.730389-41.441854 10.273994-69.043493z m-49.705052 53.336766c-3.737114 9.143241-8.848529 15.159258-15.295358 17.391089l-10.628058 3.706415-2.901073 10.744715c-13.96813 51.568493-32.656771 88.958054-57.674561 115.159809-23.638373 24.700565-53.611012 39.954991-91.331101 48.464805-33.17354-6.216585-62.433958-20.654412-86.736457-45.319161-26.084075-26.510794-46.90017-64.987107-61.361533-117.836779l-3.065825-11.246135-11.256368-3.461845c-6.594185-1.99954-11.805884-7.897877-15.60235-17.013489-3.801583-8.974395-6.121418-20.476357-7.078209-34.135448 10.30981-1.548262 21.859867-4.475941 27.554566-0.754177 0.624217-1.933025 1.243317-4.087085 1.928932-6.561439l0.303922 0.042979 0.839111-4.496408c3.109828-12.276604 6.604418-89.113597 9.735735-101.490485 1.227967-3.615341 1.670036-7.717775 4.041037-10.623965 15.10093 20.479427 129.382743 22.804379 195.72266-23.011086l-12.393262 33.42425 12.602016 2.472308 14.164605-22.512737-1.77953 15.769149 13.420661 1.762133 8.330736-25.889647c16.439414 9.373485 34.639938 21.924335 50.879807 15.10093 5.402033 12.154831 9.570983 86.182848 12.266371 100.473319l3.506871 18.323321 6.098905-0.38067 2.854001 9.558703c7.186679-0.86981 13.476943-1.020236 19.679201-1.12666-0.935302 13.3214-3.211135 24.561395-6.825452 33.466206z" fill="" p-id="2762"></path></svg>