<?xml version="1.0" standalone="no"?><!DOCTYPE svg PUBLIC "-//W3C//DTD SVG 1.1//EN" "http://www.w3.org/Graphics/SVG/1.1/DTD/svg11.dtd"><svg t="1531971833471" class="icon" style="" viewBox="0 0 1024 1024" version="1.1" xmlns="http://www.w3.org/2000/svg" p-id="6097" xmlns:xlink="http://www.w3.org/1999/xlink" width="200" height="200"><defs><style type="text/css"></style></defs><path d="M949.527273 76.929293H74.472727c-24.048485 0-43.571717 19.523232-43.571717 43.571717v229.624243c0 23.014141 18.747475 41.761616 41.761616 41.761616 23.143434 0 41.890909-18.747475 41.890909-41.761616V160.581818h794.763637v610.133334H627.587879c-23.143434 0-41.890909 18.747475-41.890909 41.890909s18.747475 41.890909 41.890909 41.890909h321.939394c24.048485 0 43.571717-19.523232 43.571717-43.571717v-690.424243c0-24.048485-19.523232-43.571717-43.571717-43.571717z" p-id="6098"></path><path d="M305.389899 699.991919c110.80404 0 200.921212-90.117172 200.921212-201.050505 0-110.80404-90.117172-201.050505-200.921212-201.050505S104.468687 388.137374 104.468687 498.941414c0 110.933333 90.117172 201.050505 200.921212 201.050505zM861.608081 355.943434c-5.947475-5.947475-13.963636-9.309091-22.49697-9.309091-8.533333 0-16.549495 3.361616-22.49697 9.309091L656.420202 516.008081c-1.551515 1.551515-2.585859 3.620202-2.585859 5.818182-0.129293 2.327273 0.905051 4.783838 2.585859 6.464646l32.840404 32.840404c1.680808 1.680808 3.878788 2.585859 6.076768 2.585859 2.19798 0 4.39596-0.905051 6.076767-2.585859l160.19394-160.193939c5.947475-5.947475 9.309091-13.963636 9.309091-22.49697s-3.361616-16.420202-9.309091-22.49697z" p-id="6099"></path><path d="M621.381818 565.527273c-8.016162 0-15.773737 3.10303-21.591919 8.791919L444.250505 690.424242c-40.727273 29.478788-88.694949 44.993939-138.860606 44.99394-51.458586 0-100.719192-16.549495-142.480808-47.709091l-0.646465-0.517172c-0.258586-0.258586-0.517172-0.387879-0.775757-0.646464l-0.258586-0.258586c-4.654545-3.10303-12.541414-6.593939-23.919192-5.171717-16.549495 2.19798-27.151515 18.230303-28.832323 21.20404-2.327273 3.10303-20.169697 26.892929-38.270707 62.707071-17.583838 34.909091-38.529293 88.177778-38.529293 143.644444v2.327273l1.551515 1.810101c12.412121 14.868687 24.436364 27.927273 24.565656 28.056565l1.939394 2.068687h2.844445c2.327273 0 160.323232 0.129293 281.729293 0.129293 61.284848 0 113.260606 0 131.490909-0.129293h2.456565l1.810101-1.680808c19.135354-17.325253 25.470707-29.090909 25.729293-29.608081l0.775758-1.551515v-1.680808c0-0.775758-2.068687-77.317172 17.842424-109.640404 14.351515-23.272727 66.715152-101.624242 98.004041-148.428283 7.369697-10.989899 13.575758-20.29899 17.971717-26.892929 2.19798-3.361616 3.878788-5.947475 5.171717-7.757576 0.646465-0.905051 1.163636-1.810101 1.680808-2.844444 3.232323-4.913131 5.042424-10.731313 5.042424-16.678788-0.258586-16.937374-13.963636-30.642424-30.90101-30.642424z" p-id="6100"></path></svg>