<?xml version="1.0" standalone="no"?><!DOCTYPE svg PUBLIC "-//W3C//DTD SVG 1.1//EN" "http://www.w3.org/Graphics/SVG/1.1/DTD/svg11.dtd"><svg t="1531971856454" class="icon" style="" viewBox="0 0 1024 1024" version="1.1" xmlns="http://www.w3.org/2000/svg" p-id="6318" xmlns:xlink="http://www.w3.org/1999/xlink" width="200" height="200"><defs><style type="text/css"></style></defs><path d="M667.570171 827.462788c0 13.250792-10.733459 24.559349-23.972994 24.559349H260.032338c-66.089208 0-131.574664-44.954865-131.574664-111.044072V213.577307c0-66.089208 65.485457-129.033795 131.574664-129.033796h455.482799c66.089208 0 107.767446 62.945611 107.767445 129.033796v23.972994c0 13.250792-10.29753 23.972994-23.536042 23.972994s-23.536043-10.722202-23.536043-23.972994V213.577307c0-39.658232-21.037129-81.96171-60.69536-81.96171H260.032338c-39.658232 0-84.502579 42.304502-84.502579 81.96171v527.400758c0 39.658232 44.844348 61.925375 84.502579 61.925374h383.564839c13.238512 0 23.972994 11.30958 23.972994 24.559349z m-23.972994-527.002692c0-13.186324-10.787694-23.536043-23.972994-23.536043H307.978327c-13.184277 0-23.972994 10.349719-23.972995 23.536043 0 13.184277 10.787694 23.536043 23.972995 23.536043h311.645856c13.184277 0 23.972994-10.350742 23.972994-23.536043z m-85.3509 166.79891c0-12.999059-10.536984-23.536043-23.536043-23.536042h-239.45365c-12.999059 0-23.536043 10.536984-23.536043 23.536042s10.536984 23.536043 23.536043 23.536043h239.45365c12.999059 0 23.536043-10.536984 23.536043-23.536043z m-250.26795 145.309481c-13.184277 0-23.972994 10.349719-23.972995 23.536042 0 13.184277 10.787694 23.536043 23.972995 23.536043h143.835919c13.184277 0 23.972994-10.351766 23.972994-23.536043 0-13.186324-10.787694-23.536043-23.972994-23.536042H307.978327z m587.958995-207.209273v343.625199c0 10.324136 2.273786 20.555152-3.930519 28.795836l-57.045227 63.86454c-9.153474 12.220323-21.721721 19.197224-36.96182 19.197224-15.240099 0-28.51852-6.976902-37.671994-19.173688l0.355087-0.023536-65.48034-63.888076c-6.192026-8.217149-15.181771-18.448164-15.181771-28.7723V405.359214c0-39.658232 43.783179-81.363076 83.440387-81.363075h71.91796c39.658232 0 60.558238 41.704844 60.558237 81.363075z m-168.845522 38.36375h119.726825v-38.36375c0-13.227256 1.775436-34.290991-11.43954-34.29099h-71.91796c-13.214976 0-36.368302 21.063735-36.368302 34.29099v38.36375z m119.726825 305.284985V492.841661h-119.726825v256.142752l66.094324 63.888075-3.121084 0.070609 56.753585-63.935148z" p-id="6319"></path></svg>